<?xml version="1.0" encoding="iso-8859-1"?>
<!-- Uploaded to: SVG Repo, www.svgrepo.com, Generator: SVG Repo Mixer Tools -->
<svg version="1.1" id="Layer_1" xmlns="http://www.w3.org/2000/svg" xmlns:xlink="http://www.w3.org/1999/xlink" 
	 viewBox="0 0 512 512" xml:space="preserve">
<path style="fill:#1B888E;" d="M511.344,274.266C511.77,268.231,512,262.143,512,256C512,114.615,397.385,0,256,0S0,114.615,0,256
	c0,117.769,79.53,216.949,187.809,246.801L511.344,274.266z"/>
<path style="fill:#135D61;" d="M511.344,274.266L314.991,77.913L119.096,434.087l68.714,68.714C209.522,508.787,232.385,512,256,512
	C391.243,512,501.976,407.125,511.344,274.266z"/>
<polygon style="fill:#FFFFFF;" points="278.328,333.913 255.711,77.913 119.096,77.913 119.096,311.652 "/>
<polygon style="fill:#E8E6E6;" points="392.904,311.652 392.904,155.826 337.252,133.565 314.991,77.913 255.711,77.913 
	256.067,333.913 "/>
<polygon style="fill:#FFFFFF;" points="314.991,155.826 314.991,77.913 392.904,155.826 "/>
<rect x="119.096" y="311.652" style="fill:#FCB433;" width="273.809" height="122.435"/>
<g>
	<path style="fill:#FFFFFF;" d="M210.775,346.387c16.649,0,28.152,10.745,28.152,26.487c0,15.665-11.655,26.488-28.683,26.488
		h-22.25v-52.975H210.775z M201.465,388.615h9.611c8.249,0,14.152-6.357,14.152-15.665c0-9.385-6.206-15.817-14.758-15.817h-9.006
		L201.465,388.615L201.465,388.615z"/>
	<path style="fill:#FFFFFF;" d="M283.886,388.086v11.276h-35.947v-52.975h13.471v41.699H283.886z"/>
	<path style="fill:#FFFFFF;" d="M328.163,388.086v11.276h-35.948v-52.975h13.471v41.699H328.163z"/>
</g>
</svg>